<?xml version="1.0" encoding="UTF-8"?>
<svg id="Layer_1" xmlns="http://www.w3.org/2000/svg" version="1.1" viewBox="0 0 512 512">
  <!-- Generator: Adobe Illustrator 30.4.0, SVG Export Plug-In . SVG Version: 2.1.4 Build 226)  -->
  <defs>
    <style>
      .st0 {
        fill: #050505;
      }

      .st1 {
        fill: #fffdf7;
      }
    </style>
  </defs>
  <rect class="st1" width="512" height="512" rx="64" ry="64"/>
  <path class="st0" d="M12,347c28-40,42-86,56-150l7-6c29-1,51-14,66-40,9-15,14-30,18-51,4-27,10-46,22-56l7-3c21-2,43,8,65,9,8,1,15-1,21-5,44-11,96-4,132,17,42,24,74,61,102,117s48,115,63,183l-8,4c-16-68-38-129-65-182-28-55-59-91-99-113-34-19-83-26-122-15-18,11-50,2-80,0-20,21-18,70-36,104-18,31-45,47-80,50-14,64-30,109-59,148l-8-7-2-4Z"/>
  <path class="st0" d="M181,51h11c1,82,7,169,19,259,6,45,4,93-5,143l-11,1c9-51,11-99,5-143-12-91-18-177-19-260Z"/>
  <path class="st0" d="M150,147l11,6c-25,45-56,70-93,74-9,34-18,71-29,109l-12-4c12-42,21-80,30-113l5-4c35-2,63-25,88-68Z"/>
  <path class="st0" d="M195,299c50,9,91,24,124,46,43,0,83,12,120,36,29,19,61,32,96,38l-3,13c-37-6-71-20-101-40-36-23-74-34-114-34l-4-1c-31-22-72-37-121-45l3-13Z"/>
  <path class="st0" d="M205,299l10,11c-22,16-34,46-36,89-2,25-10,50-24,73l-12-7c13-21,20-43,22-67,3-48,16-81,40-99Z"/>
  <path class="st0" d="M83,254.3h9c-7,52.09-14,100.12-22,145.7h-10c8-46.4,16-94.42,23-145.7ZM118,228.25h10c-8,68.37-10,137.56-7,206.75h-10c-3-69.19-1-138.37,7-206.75ZM149,134.65h11c-6,98.49-2,198.61,10,297.91h-10c-13-99.3-16-198.61-11-297.91ZM212,139.53h10c-1,66.74,5,133.49,18,200.23h-10c-13-66.74-19-133.49-18-200.23ZM256,159.88h10c1,61.05,10,122.09,26,183.14h-10c-16-60.23-25-121.28-26-183.14Z"/>
  <path class="st0" d="M258,343c35,24,75,38,123,43l-2,10c-50-5-93-20-126-44l5-9ZM288,308c34,19,72,29,116,32l-1,10c-46-3-86-14-120-33l5-9ZM382,140c16,1,32,4,47,8l-2,10c-16-4-31-7-46-8l1-10ZM416,199c25,4,46,12,64,25l-6,8c-16-12-36-20-60-24l2-9ZM441,260c16,9,28,20,36,34l-9,5c-7-12-18-22-32-31l5-8Z"/>
  <path class="st0" d="M87,422l8,7c-9,11-19,20-31,28l-6-8c11-8,20-16,29-27ZM193,473c15-24,32-47,50-68l8,7c-18,21-34,43-49,67l-9-6ZM277,480c11-14,23-27,36-38l7,8c-12,11-24,23-34,36l-9-6ZM395,417c16,16,29,35,38,55l-10,5c-9-19-21-37-36-52l8-8Z"/>
</svg>